<svg xmlns="http://www.w3.org/2000/svg" viewBox="0 0 256 256">
  <defs>
    <linearGradient id="grad1" x1="0%" y1="0%" x2="100%" y2="100%">
      <stop offset="0%" style="stop-color:#9333ea;stop-opacity:1" />
      <stop offset="100%" style="stop-color:#6b21a8;stop-opacity:1" />
    </linearGradient>
    <linearGradient id="grad2" x1="0%" y1="0%" x2="100%" y2="100%">
      <stop offset="0%" style="stop-color:#fbbf24;stop-opacity:1" />
      <stop offset="100%" style="stop-color:#f59e0b;stop-opacity:1" />
    </linearGradient>
  </defs>
  <polygon points="128,20 220,90 220,166 128,236 36,166 36,90" fill="url(#grad1)" stroke="#1f1f1f" stroke-width="3"/>
  <polygon points="128,20 220,90 128,128" fill="url(#grad2)" stroke="#1f1f1f" stroke-width="3"/>
  <polygon points="128,128 220,90 220,166 128,166" fill="#7c3aed" stroke="#1f1f1f" stroke-width="3"/>
  <polygon points="128,128 36,90 36,166 128,166" fill="#a855f7" stroke="#1f1f1f" stroke-width="3"/>
  <polygon points="128,128 128,166 128,236 36,166" fill="#6b21a8" stroke="#1f1f1f" stroke-width="3"/>
  <polygon points="128,128 128,166 128,236 220,166" fill="#581c87" stroke="#1f1f1f" stroke-width="3"/>
  <circle cx="170" cy="105" r="6" fill="#fbbf24"/>
  <circle cx="150" cy="115" r="6" fill="#fbbf24"/>
  <text x="75" y="140" font-family="Arial, sans-serif" font-size="32" font-weight="bold" fill="#fbbf24" text-anchor="middle">20</text>
</svg>